<?xml version="1.0" encoding="utf-8"?>
<!-- Generator: Adobe Illustrator 23.1.0, SVG Export Plug-In . SVG Version: 6.00 Build 0)  -->
<svg version="1.1" id="Слой_1" xmlns="http://www.w3.org/2000/svg" xmlns:xlink="http://www.w3.org/1999/xlink" x="0px" y="0px"
	 viewBox="0 0 100 100" style="enable-background:new 0 0 100 100;" xml:space="preserve">
<style type="text/css">
	.st0{fill:#F13200;}
</style>
<g>
	<path class="st0" d="M50,0C22.4,0,0,22.4,0,50s22.4,50,50,50l0,0c27.6,0,50-22.4,50-50S77.6,0,50,0z M50,93.6L50,93.6
		C25.9,93.6,6.4,74.1,6.4,50C6.4,25.9,25.9,6.4,50,6.4S93.6,25.9,93.6,50S74.1,93.6,50,93.6z"/>
	<g>
		<path class="st0" d="M67.7,36.3H54.7L50,21.8l-4.7,14.5H32.3l0.1-0.1l0.1-0.5l0.6-1.6l5.3-14.3l0.9-2.6l0.1-0.3l0.1-0.2
			c0.5-1.2,1.3-2.2,2.5-2.7c0.1-0.1,0.1-0.1,0.2-0.1c0.1-0.1,0.3-0.1,0.4-0.2c2-0.9,4.5-1.4,7.3-1.4H50c2.7,0,5.3,0.5,7.3,1.4
			c0.1,0.1,0.3,0.1,0.4,0.2c0.1,0,0.1,0.1,0.2,0.1c1.1,0.6,2,1.6,2.4,2.7l0.1,0.2l0.1,0.3l0.9,2.6l1.3,3.3l0.9,2.5l0.1,0.4l0.6,1.6
			L67.7,36.3z"/>
		<path class="st0" d="M75.3,74h-11l-2.1-5.7c-0.9-2.3-3.1-3.9-5.6-3.9H43.2c-2.5,0-4.7,1.6-5.5,3.9L35.6,74H24.5
			c-3,0-5.1-3-4.1-5.8l1-2.7l0.6-1.6l3.2-8.6l0.1-0.3l0.3-0.9l2.9-7.7l0,0l3.2-8.5l0.1-0.2l10.6,7.7l-4.7,14.5L50,50.8l12.4,9
			l-4.7-14.5l10.5-7.6l3.7,10.1l2.3,6.3l0.3,0.9l0.1,0.3l3.2,8.6l0.6,1.6l0.9,2.7C80.4,71,78.3,74,75.3,74z"/>
		<path class="st0" d="M37.5,76.7c-3.1,0-5.3,2.2-5.3,5.5c0,3.3,2.3,5.5,5.3,5.5s5.4-2.1,5.4-5.5C42.9,78.9,40.5,76.7,37.5,76.7z
			 M37.5,85.5c-1.7,0-2.8-1.1-2.8-3.3c0-2,1.2-3.3,2.8-3.3c1.7,0,2.8,1.3,2.8,3.3C40.3,84.3,39.1,85.5,37.5,85.5z"/>
		<path class="st0" d="M66.5,84h-2.2c-0.1,0-0.1,0.1-0.2,0.2c-0.3,0.9-1.1,1.3-2.2,1.3c-1.5,0-2.5-1.1-2.7-2.5h6.3
			c0.9,0,1.3-0.3,1.3-1.3c0-2.6-1.7-5-5-5c-3,0-5.2,2.2-5.2,5.5c0,3.3,2.1,5.5,5.2,5.5c3.7,0,4.8-3,4.8-3.5C66.7,84,66.7,84,66.5,84
			z M61.9,78.7c1.6,0,2.5,1.1,2.5,2.5h-5.1C59.4,79.7,60.4,78.7,61.9,78.7z"/>
		<path class="st0" d="M49.9,76.7c-2.7,0-4.7,1.7-4.7,4.6v5.8c0,0.2,0.1,0.3,0.3,0.3h1.9c0.2,0,0.3-0.1,0.3-0.3v-5.9
			c0-1.2,1-2.1,2.1-2.1c0.5,0,1.1,0.2,1.5,0.6c0.3,0.4,0.6,0.9,0.6,1.5v5.9c0,0.2,0.1,0.3,0.3,0.3h1.9c0.2,0,0.3-0.1,0.3-0.3v-5.8
			C54.5,78.5,52.5,76.8,49.9,76.7z"/>
	</g>
</g>
</svg>
